<svg width="148" height="50" viewBox="0 0 148 50" fill="none" xmlns="http://www.w3.org/2000/svg">
<g clip-path="url(#clip0_2294_25)">
<path d="M74.9457 35.911L73.3723 31.5748H65.5347L64.0474 35.911H58.7196L67.2214 13.8269H71.9712L80.3801 35.911H74.9457ZM69.5045 19.7206L66.929 27.3004H72.0278L69.5045 19.7206Z" fill="#215819"/>
<path d="M94.3549 35.9407C92.9347 36.3064 91.4793 36.4849 90.0201 36.4722C88.4937 36.4899 86.9772 36.2042 85.5447 35.6292C84.2371 35.106 83.0401 34.2995 82.026 33.2584C81.0333 32.2247 80.2489 30.977 79.7226 29.5946C79.1559 28.0852 78.8752 26.4664 78.8974 24.8356C78.8737 23.1865 79.1592 21.5494 79.7362 20.0248C80.27 18.6403 81.0657 17.3944 82.0714 16.3684C83.0806 15.3477 84.267 14.5576 85.5606 14.0445C86.9441 13.4944 88.4069 13.2197 89.8795 13.2337C91.3976 13.218 92.9069 13.4872 94.3413 14.0297C95.5839 14.4743 96.7255 15.2024 97.6899 16.1657L94.5975 20.0025C94.0761 19.3622 93.4311 18.8556 92.7089 18.5192C91.8707 18.121 90.9638 17.9237 90.0495 17.9407C89.2342 17.9307 88.4258 18.1058 87.6758 18.4549C86.9633 18.7888 86.3207 19.2775 85.7873 19.8913C85.2426 20.5208 84.8194 21.2631 84.5426 22.0742C84.2365 22.9554 84.0828 23.8909 84.0892 24.8332C84.0795 25.787 84.2152 26.7361 84.4905 27.6416C84.7378 28.4591 85.1429 29.2093 85.6784 29.8418C86.2225 30.4696 86.8866 30.9591 87.6237 31.2757C88.4665 31.6333 89.3652 31.808 90.2695 31.7899C90.8155 31.7921 91.3607 31.745 91.8995 31.649C92.392 31.5645 92.8726 31.4125 93.3301 31.1966V27.1768H89.4759V22.8727H97.8305V34.5686C96.7258 35.1743 95.5591 35.6349 94.3549 35.9407Z" fill="#215819"/>
<path d="M110.96 35.911L106.557 27.1446H104.888V35.911H100.118V13.827H107.842C108.799 13.8251 109.752 13.9345 110.688 14.1533C111.574 14.3532 112.419 14.7285 113.181 15.2608C113.916 15.7786 114.522 16.4859 114.945 17.3202C115.411 18.3017 115.637 19.3974 115.603 20.5019C115.603 21.9967 115.231 23.2542 114.487 24.2744C113.686 25.3329 112.603 26.094 111.388 26.4524L116.68 35.9036L110.96 35.911ZM110.76 20.5958C110.783 20.1816 110.693 19.7692 110.501 19.411C110.309 19.0527 110.023 18.7647 109.681 18.5834C109.347 18.3999 108.988 18.2787 108.618 18.225C108.242 18.163 107.863 18.1316 107.484 18.131H104.868V23.2781H107.194C107.608 23.2771 108.022 23.2399 108.432 23.1669C108.831 23.1021 109.218 22.9712 109.581 22.7787C109.955 22.5845 110.267 22.2728 110.477 21.8839C110.687 21.4949 110.785 21.0464 110.76 20.5958Z" fill="#215819"/>
<path d="M117.367 35.911V13.8269H122.286V35.911H117.367Z" fill="#215819"/>
<path d="M143.112 35.911L143.226 20.2818H143.14L137.878 35.911H134.443L129.324 20.2719H129.228L129.344 35.9011H124.746V13.8269H131.706L136.318 27.9876H136.433L140.843 13.8269H147.917V35.911H143.112Z" fill="#215819"/>
<path d="M29.8994 0H1.12113e-07V24.9988C-0.000297635 28.2819 0.59247 31.5329 1.74445 34.5661C2.89644 37.5994 4.58508 40.3555 6.71394 42.6772C8.84281 44.9988 11.3702 46.8404 14.1518 48.0968C16.9334 49.3533 19.9148 50 22.9256 50H52.825V24.9988C52.825 18.3687 50.4096 12.0101 46.1102 7.32197C41.8108 2.63379 35.9796 0 29.8994 0ZM9.39287 36.2967C7.62121 33.719 6.4939 30.6838 6.12135 27.4883C5.86742 26.4302 6.02386 9.99011 5.98532 8.45241C6.69267 9.2089 11.3993 14.3486 11.9661 14.9543C12.2427 26.0346 9.47902 38.4178 21.3272 43.6539C18.9805 43.3903 16.709 42.6007 14.6553 41.3347C12.6016 40.0686 10.81 38.3534 9.39287 36.2967ZM40.1515 43.7577H26.4692C25.1747 43.7591 23.8867 43.5585 22.6444 43.1619C20.9133 42.6066 19.2995 41.6845 17.8955 40.4484C16.4915 39.2122 15.3248 37.6863 14.4622 35.958C13.1677 33.4339 12.7052 30.5019 12.8118 27.6267C14.9769 38.2991 25.8049 36.2027 33.316 36.3288V28.843H26.4397L19.5838 21.3894H32.7333C32.0688 19.3575 30.8815 17.5774 29.3134 16.2621C27.7453 14.9468 25.8629 14.152 23.8914 13.9728C21.2411 13.9728 15.3691 13.7824 12.814 14.0173L5.84929 6.45735L12.7936 6.42769C19.5044 6.55871 25.7323 5.71075 29.8132 7.99506C35.896 10.7787 40.1266 17.6366 40.1492 24.8331C40.2014 25.1842 40.088 43.3943 40.1515 43.7577ZM27.2989 29.7849H32.4635V35.3993L27.2989 29.7849ZM46.9689 43.7577H41.0062C40.8974 40.9271 41.31 23.7849 40.682 21.3993C39.5008 14.4771 34.6967 8.60074 28.5527 6.49444C38.3922 5.75278 47.0391 14.3041 46.9689 25.1248V43.7577Z" fill="#215819"/>
<path opacity="0.5" d="M5.97853 8.45737C6.68589 9.21386 11.3925 14.3535 11.9593 14.9592C12.2427 26.0346 9.47904 38.4178 21.3272 43.6539C17.4919 43.2251 13.9022 41.3945 11.1416 38.4597C8.38103 35.5248 6.61177 31.6583 6.12136 27.4883C5.86064 26.4302 6.01707 9.99012 5.97853 8.45737Z" fill="#215819"/>
<path opacity="0.5" d="M32.4635 29.7751V35.3894L27.2989 29.7751H32.4635Z" fill="#215819"/>
</g>
<defs>
<clipPath id="clip0_2294_25">
<rect width="147.917" height="50" fill="white"/>
</clipPath>
</defs>
</svg>
