<svg width="24" height="24" viewBox="0 0 24 24" fill="none" xmlns="http://www.w3.org/2000/svg">
<path fill-rule="evenodd" clip-rule="evenodd" d="M10.8632 4.15112C7.5815 2.38059 4.19355 0.554002 3.72634 0.30684C3.24709 0.0322912 2.70467 -0.0540483 2.20436 0.0319339C2.19478 0.0335486 2.1852 0.0353356 2.17565 0.0372584C2.1666 0.0390949 2.15759 0.0410547 2.14863 0.0431377C1.72216 0.14163 1.31339 0.384786 1.02044 0.794693C0.730988 1.19969 0.600708 1.7016 0.600708 2.24927V21.7526C0.600708 22.2306 0.694061 22.7342 0.95589 23.1579C1.23624 23.6117 1.69602 23.9411 2.29099 23.996C2.36168 24.0026 2.43218 24.001 2.50122 23.9915C2.93095 23.9932 3.34112 23.8547 3.72056 23.6482L3.85494 23.5754C4.0157 23.4882 4.27413 23.3481 4.61418 23.1642C6.94011 21.9068 13.0475 18.6048 17.425 16.2249C17.4355 16.2191 17.4459 16.2133 17.4561 16.2071C18.2905 15.7539 19.0615 15.3346 19.7305 14.9706L20.7793 14.4003C21.2081 14.1673 21.5583 13.9772 21.812 13.84C21.939 13.7714 22.0408 13.7166 22.1157 13.6766L22.2055 13.629L22.2376 13.6121L22.2596 13.601C22.6561 13.3925 23.2028 12.9493 23.3609 12.2769C23.4495 11.9002 23.4016 11.4913 23.1777 11.1157C22.9672 10.7626 22.638 10.4996 22.2635 10.3003L22.2546 10.2957C21.9015 10.1127 19.9514 9.05398 17.4263 7.67596C17.3753 7.64811 17.3225 7.62551 17.2688 7.60804L15.3911 6.59451C14.1674 5.93399 12.5275 5.04899 10.8632 4.15112ZM13.4897 10.6713L6.83879 4.0811C7.82691 4.61384 8.91069 5.19841 9.98542 5.77825C11.6496 6.67603 13.2892 7.56097 14.513 8.22146L15.4405 8.72215L13.4897 10.6713ZM2.44952 21.68V2.3346L12.1811 11.9774L2.44952 21.68ZM14.8068 11.9721L17.1572 9.6352C19.36 10.8366 21.0428 11.7496 21.3988 11.9345L21.426 11.9494C21.4182 11.9541 21.4106 11.9585 21.4032 11.9625C21.2119 12.0602 20.2033 12.6088 18.7575 13.3952C18.2654 13.6629 17.7225 13.9582 17.1439 14.2726L14.8068 11.9721ZM6.95962 19.7941L13.4964 13.2766L15.446 15.1961C12.683 16.6966 9.46171 18.4405 6.95962 19.7941Z" fill="white"/>
</svg>
